:FULLY-SPECIFIED
:FORCE-ALL-JOINTS-BE-3DOF
:DEGREES
408
root 7.15854 13.795 -34.2327 159.265 75.11 153.073
lfemur 18.3777 -2.77352 -10.3076
ltibia 24.1006 -0 0
lfoot -23.3256 33.222 0.000200409
ltoes -26.4088 0 0
rfemur -66.2565 -16.2762 8.2373
rtibia 79.108 -0 0
rfoot -14.0703 13.2869 0.00168363
rtoes 10.0616 -0 0
lowerback 8.49493 4.90577 -11.7029
upperback -2.54384 5.18114 -1.20578
thorax -8.48157 3.09359 4.38242
lowerneck 0.542051 -11.6594 -11.3431
upperneck 3.17773 -15.8466 9.27915
head 2.49599 -7.9224 4.02131
lclavicle -4.1869e-14 -3.57812e-15 0
lhumerus -70.2131 -20.0521 106.459
lradius 100.288 -0 0
lwrist 51.1141 0 0
lhand -10.033 42.9104 0.000125631
lfingers 7.12502 -0 0
lthumb 15.9519 72.2724 -0.000138444
rclavicle -4.1869e-14 -3.57812e-15 0
rhumerus 49.2904 -3.98361 -59.644
rradius 19.9304 -0 0
rwrist 18.6769 0 0
rhand -21.7708 -33.2107 0.000730783
rfingers 7.12502 -0 0
rthumb 4.63012 -63.1399 0.000722955
409
root 7.16779 13.7915 -34.2408 159.275 75.1353 153.075
lfemur 18.4721 -2.732 -10.2987
ltibia 23.9981 -0 0
lfoot -23.337 33.2043 0.000137122
ltoes -26.5264 0 0
rfemur -66.2781 -16.3112 8.26106
rtibia 79.1795 -0 0
rfoot -14.1348 13.2606 0.00115196
rtoes 10.0938 -0 0
lowerback 8.46633 4.9007 -11.7
upperback -2.5531 5.17874 -1.19577
thorax -8.47553 3.09271 4.39388
lowerneck 0.546027 -11.6512 -11.3513
upperneck 3.19209 -15.8364 9.27482
head 2.49889 -7.91753 4.02169
lclavicle -4.1869e-14 -3.57812e-15 0
lhumerus -70.2155 -20.0196 106.459
lradius 100.285 -0 0
lwrist 51.1085 0 0
lhand -9.9714 42.9125 8.59578e-05
lfingers 7.12502 -0 0
lthumb 16.0112 72.2701 -9.47245e-05
rclavicle -4.1869e-14 -3.57812e-15 0
rhumerus 49.2702 -3.92931 -59.6023
rradius 19.9457 -0 0
rwrist 18.5727 0 0
rhand -21.7396 -33.1871 0.000500009
rfingers 7.12502 -0 0
rthumb 4.66017 -63.1158 0.000494652
410
root 7.17705 13.7881 -34.249 159.286 75.1605 153.076
lfemur 18.5664 -2.69048 -10.2898
ltibia 23.8956 -0 0
lfoot -23.3485 33.1867 7.0319e-05
ltoes -26.6439 0 0
rfemur -66.2998 -16.3463 8.28482
rtibia 79.251 -0 0
rfoot -14.1992 13.2344 0.000590744
rtoes 10.126 -0 0
lowerback 8.43774 4.89564 -11.6972
upperback -2.56236 5.17634 -1.18576
thorax -8.4695 3.09183 4.40533
lowerneck 0.550002 -11.6431 -11.3594
upperneck 3.20645 -15.8261 9.2705
head 2.50178 -7.91267 4.02208
lclavicle -4.1869e-14 -3.57812e-15 0
lhumerus -70.218 -19.987 106.459
lradius 100.282 -0 0
lwrist 51.1029 0 0
lhand -9.90983 42.9145 4.40808e-05
lfingers 7.12502 -0 0
lthumb 16.0705 72.2677 -4.85765e-05
rclavicle -4.1869e-14 -3.57812e-15 0
rhumerus 49.25 -3.875 -59.5606
rradius 19.9609 -0 0
rwrist 18.4684 0 0
rhand -21.7085 -33.1635 0.000256414
rfingers 7.12502 -0 0
rthumb 4.69022 -63.0916 0.000253668
411
root 7.1863 13.7847 -34.2571 159.297 75.1858 153.078
lfemur 18.6608 -2.64898 -10.2808
ltibia 23.7931 0 0
lfoot -23.3599 33.1691 0
ltoes -26.7615 0 0
rfemur -66.3214 -16.3813 8.30861
rtibia 79.3225 0 0
rfoot -14.2636 13.2081 0
rtoes 10.1582 0 0
lowerback 8.40914 4.89058 -11.6943
upperback -2.57162 5.17394 -1.17575
thorax -8.46346 3.09095 4.41678
lowerneck 0.553975 -11.6349 -11.3675
upperneck 3.2208 -15.8159 9.26617
head 2.50468 -7.9078 4.02246
lclavicle -4.1869e-14 -3.57812e-15 0
lhumerus -70.2204 -19.9544 106.459
lradius 100.279 0 0
lwrist 51.0973 0 0
lhand -9.84827 42.9166 0
lfingers 7.12502 0 0
lthumb 16.1298 72.2654 0
rclavicle -4.1869e-14 -3.57812e-15 0
rhumerus 49.2299 -3.82067 -59.519
rradius 19.9761 0 0
rwrist 18.3642 0 0
rhand -21.6774 -33.1399 0
rfingers 7.12502 0 0
rthumb 4.72027 -63.0674 0
412
root 7.12532 13.7941 -34.2774 160.02 75.1908 153.914
lfemur 17.9674 -2.93674 -10.2664
ltibia 24.9174 -0 0
lfoot -23.3389 32.9795 -0.00138989
ltoes -26.7417 0 0
rfemur -66.0188 -16.1403 8.19817
rtibia 78.7458 -0 0
rfoot -13.8985 13.0603 -0.0189544
rtoes 9.72098 -0 0
lowerback 8.5804 4.83254 -11.5531
upperback -2.50108 5.10029 -1.08947
thorax -8.46829 3.04809 4.44186
lowerneck 0.632707 -11.6816 -11.3892
upperneck 3.13283 -15.888 9.39114
head 2.4871 -7.94454 4.06568
lclavicle 6.54499e-14 -1.98785e-15 0
lhumerus -69.9678 -20.486 106.43
lradius 100.29 -0 0
lwrist 50.954 0 0
lhand -9.78336 42.9055 -0.000252457
lfingers 7.12502 -0 0
lthumb 16.1923 72.2487 -0.000363583
rclavicle 6.54499e-14 -1.98785e-15 0
rhumerus 48.8328 -3.76294 -59.0636
rradius 20.8965 -0 0
rwrist 17.0504 0 0
rhand -21.2834 -33.3993 -0.0360055
rfingers 7.12502 -0 0
rthumb 5.10019 -63.3034 -0.0315522
413
root 7.06435 13.8034 -34.2977 160.744 75.1932 154.75
lfemur 17.2737 -3.22431 -10.2486
ltibia 26.0417 -0 0
lfoot -23.3179 32.79 -0.00271039
ltoes -26.7219 0 0
rfemur -65.717 -15.8988 8.08919
rtibia 78.1691 -0 0
rfoot -13.5334 12.9124 -0.0369666
rtoes 9.28377 -0 0
lowerback 8.7515 4.77408 -11.4121
upperback -2.43065 5.02654 -1.0033
thorax -8.47314 3.00522 4.46694
lowerneck 0.71147 -11.7283 -11.411
upperneck 3.04467 -15.9599 9.51627
head 2.46949 -7.98126 4.10891
lclavicle 6.54499e-14 -1.98785e-15 0
lhumerus -69.714 -21.0174 106.399
lradius 100.302 -0 0
lwrist 50.8107 0 0
lhand -9.71844 42.8943 -0.000492293
lfingers 7.12502 -0 0
lthumb 16.2547 72.2321 -0.00070899
rclavicle 6.54499e-14 -1.98785e-15 0
rhumerus 48.4362 -3.70207 -58.6086
rradius 21.8168 -0 0
rwrist 15.7365 0 0
rhand -20.8893 -33.659 -0.070226
rfingers 7.12502 -0 0
rthumb 5.48024 -63.5395 -0.0615388
414
root 7.00337 13.8128 -34.318 161.468 75.1928 155.587
lfemur 16.5797 -3.51165 -10.2272
ltibia 27.166 -0 0
lfoot -23.297 32.6004 -0.00396147
ltoes -26.7021 0 0
rfemur -65.4161 -15.6567 7.98166
rtibia 77.5924 -0 0
rfoot -13.1682 12.7644 -0.0540358
rtoes 8.84655 -0 0
lowerback 8.92245 4.7152 -11.2712
upperback -2.36035 4.95268 -0.917223
thorax -8.478 2.96236 4.49202
lowerneck 0.790265 -11.775 -11.4328
upperneck 2.95631 -16.0316 9.64156
head 2.45184 -8.01797 4.15216
lclavicle 6.54499e-14 -1.98785e-15 0
lhumerus -69.459 -21.5488 106.364
lradius 100.313 -0 0
lwrist 50.6675 0 0
lhand -9.65353 42.8832 -0.000719509
lfingers 7.12502 -0 0
lthumb 16.3172 72.2154 -0.00103622
rclavicle 6.54499e-14 -1.98785e-15 0
rhumerus 48.0401 -3.63805 -58.1541
rradius 22.7372 -0 0
rwrist 14.4227 0 0
rhand -20.495 -33.9189 -0.102659
rfingers 7.12502 -0 0
rthumb 5.86041 -63.7759 -0.0899579
415
root 6.94239 13.8222 -34.3383 162.192 75.1898 156.423
lfemur 15.8853 -3.7987 -10.2024
ltibia 28.2903 -0 0
lfoot -23.276 32.4109 -0.00514312
ltoes -26.6823 0 0
rfemur -65.116 -15.4141 7.87557
rtibia 77.0157 -0 0
rfoot -12.8029 12.6163 -0.0701612
rtoes 8.40933 -0 0
lowerback 9.09323 4.6559 -11.1306
upperback -2.29016 4.87871 -0.831249
thorax -8.48289 2.91951 4.5171
lowerneck 0.869091 -11.8216 -11.4548
upperneck 2.86776 -16.1031 9.76701
head 2.43417 -8.05467 4.19543
lclavicle 6.54499e-14 -1.98785e-15 0
lhumerus -69.2027 -22.0799 106.328
lradius 100.324 -0 0
lwrist 50.5242 0 0
lhand -9.58862 42.872 -0.000934102
lfingers 7.12502 -0 0
lthumb 16.3797 72.1987 -0.00134527
rclavicle 6.54499e-14 -1.98785e-15 0
rhumerus 47.6446 -3.57091 -57.7
rradius 23.6576 -0 0
rwrist 13.1089 0 0
rhand -20.1005 -34.179 -0.133302
rfingers 7.12502 -0 0
rthumb 6.24069 -64.0125 -0.116808
